<?xml version="1.0" encoding="utf-8"?>
<!-- Generator: Adobe Illustrator 23.0.4, SVG Export Plug-In . SVG Version: 6.00 Build 0)  -->
<svg version="1.1" id="Layer_1" xmlns="http://www.w3.org/2000/svg" xmlns:xlink="http://www.w3.org/1999/xlink" x="0px" y="0px"
	 viewBox="0 0 1000 1000" style="enable-background:new 0 0 1000 1000;" xml:space="preserve">
<style type="text/css">
	.st0{fill:#47A147;}
</style>
<g>
	<path class="st0" d="M333.1,619.9v-8h-30.1c-15.4,0-22.5,3.1-22.5,12c0,10,8,16.5,21.2,16.5C318.4,640.4,331.5,631.5,333.1,619.9
		 M333.3,661.4v-14.5c-8.3,10.5-21.7,15.8-38.6,15.8c-25.7,0-41.7-15.8-41.7-37.1c0-22.1,16.3-35.7,45.3-35.9h34.8v-3.1
		c0-13.8-9.2-22.1-27-22.1c-11.2,0-23.2,3.8-35.5,11.2l-10.5-20.1c17.2-9.6,30.6-14.7,52.5-14.7c31.3,0,48.9,15.9,49.1,42.4
		l0.2,78.1H333.3z"/>
	<path class="st0" d="M450.7,540.8V569c-25.2-1.6-40.6,13.2-40.6,34.8v57.6h-29V542h29v23C418.1,549.3,432.2,541.1,450.7,540.8"/>
	<path class="st0" d="M516.6,563.6c17.1,0,28.7,10,30.4,26.1h-61.8C488.6,573.7,500.3,563.6,516.6,563.6 M516.4,541.1
		c-35.7,0-60.7,24.6-60.7,60.9c0,35.9,24.3,60.5,61.4,60.5c21,0,38.4-7.6,50.2-20.5l-15.6-16.3c-8.5,8.7-19.9,13.4-32.1,13.4
		c-17.4,0-30.4-10.3-34.2-27.2h88.2C576.4,568.5,558.3,541.1,516.4,541.1"/>
	<path class="st0" d="M648.7,563.6c17.1,0,28.7,10,30.4,26.1h-61.8C620.8,573.7,632.5,563.6,648.7,563.6 M648.5,541.1
		c-35.7,0-60.7,24.6-60.7,60.9c0,35.9,24.3,60.5,61.4,60.5c21,0,38.4-7.6,50.2-20.5l-15.6-16.3c-8.5,8.7-19.9,13.4-32.1,13.4
		c-17.4,0-30.4-10.3-34.2-27.2h88.2C708.6,568.5,690.5,541.1,648.5,541.1"/>
	<path class="st0" d="M900.2,587.5v74.6H871V596c0-17-8.9-27.2-20.1-27.2c-16.7,0-25.2,15-25.2,34.4v58.9h-29.2V596
		c0-17-9.8-27.2-21.6-27.2c-19.1,0-23.9,15-23.9,34.4v58.9h-29V542.6h29l0.1,19.2c7.7-12.6,19-20.1,34.1-20.3
		c18.7,0,31.5,12.5,35.1,23.9c11.5-18.1,22.9-23.9,41-23.9C885.5,541.5,900.2,559.1,900.2,587.5"/>
	<path class="st0" d="M179.8,663.5c-44.1,0-80-35.9-80-80h30.5c0,27.3,22.2,49.6,49.6,49.6c8.7,0,17.3-2.3,24.8-6.7
		c5-2.9,9.4-6.6,13.1-11l23.3,19.6c-6,7.1-13.1,13.1-21.2,17.8C207.8,659.8,193.9,663.5,179.8,663.5"/>
	<path class="st0" d="M217.8,551.6c-6.8-8-16.1-13.8-26.2-16.3l7.2-29.6c16.4,4,31.4,13.3,42.3,26.3L217.8,551.6z"/>
	<path class="st0" d="M162.7,534.2c0,12.6-10.2,22.8-22.8,22.8c-12.6,0-22.8-10.2-22.8-22.8c0-12.6,10.2-22.8,22.8-22.8
		C152.5,511.4,162.7,521.6,162.7,534.2"/>
	<path class="st0" d="M853.5,379.8l-15.5,0.1V379c0-9.1,7.4-16.6,16.6-16.6h36v-25.9h-36c-23.4,0-42.5,19.1-42.5,42.5v24.4h0.1
		l0,2.5l41.3-0.1c11.4,0,20.8,9.3,20.8,20.8v21.2h-99.8v-64.3h-25.9v87.1c0,9.1-7.4,16.6-16.6,16.6h-11.1V513H732
		c22.4,0,40.7-17.4,42.3-39.4h125.9v-47.1C900.2,400.8,879.3,379.8,853.5,379.8"/>
	<path class="st0" d="M686.3,486.2c-7.5,0-13.5,6.1-13.5,13.5c0,7.5,6.1,13.5,13.5,13.5c7.5,0,13.5-6.1,13.5-13.5
		C699.8,492.3,693.8,486.2,686.3,486.2"/>
	<path class="st0" d="M651.4,486.2c-7.5,0-13.5,6.1-13.5,13.5c0,7.5,6.1,13.5,13.5,13.5c7.5,0,13.5-6.1,13.5-13.5
		C664.9,492.3,658.9,486.2,651.4,486.2"/>
	<path class="st0" d="M587.5,452.9c-12.5,0-21.1-9.8-21.1-24.6c0-14.6,8.6-24.4,21.1-24.4c12.7,0,21.3,9.8,21.3,24.4
		C608.8,443.1,600.3,452.9,587.5,452.9 M720.9,383.3h-25.9v48.1c0,9.1-7.4,16.6-16.6,16.6h-6.3h-3.3h-6.4h-3.2h-6.3
		c-8.4,0-15.4-6.4-16.4-14.5c0.2-1.8,0.3-3.6,0.3-5.4c0-27.6-19.6-45.9-49.2-45.9c-29.6,0-49,18.3-49,45.9c0,3.9,0.4,7.5,1.2,11
		c-19.6,3.7-34.5,21-34.5,41.7V513h25.9v-32.2c0-9.1,7.4-16.6,16.6-16.6h7.6c8.3,6.3,19.3,9.9,32.3,9.9c14.7,0,26.9-4.5,35.5-12.5
		c7.7,7.6,18.2,12.3,29.8,12.3h6.3h3.2h6.4h3.3h6.3c23.4,0,42.5-19.1,42.5-42.5V383.3z"/>
</g>
</svg>
