<svg id="Capa_1" enable-background="new 0 0 512 512" height="512" viewBox="0 0 512 512" width="512" xmlns="http://www.w3.org/2000/svg"><g fill="#233d91"><path d="m226 30.5h60v15h-60z"/><path d="m248.5 466.5h15v15h-15z"/><path d="m178.5 317.005c18.48 18.863 51.051 24.495 77.5 24.495 26.408 0 59.005-5.616 77.5-24.495v-74.06l15-6.428v64.483h15v-70.912l16.539-7.088-124.039-53.16-124.039 53.16 46.539 19.945zm140-6.478c-5.971 4.484-24.937 15.973-62.5 15.973-37.626 0-56.592-11.526-62.5-15.965v-61.161l62.5 26.786 62.5-26.786zm-148.461-87.527 85.961-36.84 85.961 36.84-85.961 36.84z"/><path d="m490.024 197.5h21.976v-15h-28.024l-27 26h-13.476v-170.5c0-20.678-16.822-37.5-37.5-37.5h-300c-20.678 0-37.5 16.822-37.5 37.5v170.5h-13.476l-27-26h-28.024v15h21.976l27 26h52.904c-1.711 8.123-2.795 16.473-3.197 25h-98.683v15h98.683c.402 8.527 1.486 16.877 3.197 25h-52.904l-27 26h-21.976v15h28.024l27-26h13.476v170.5c0 20.678 16.822 37.5 37.5 37.5h300c20.678 0 37.5-16.822 37.5-37.5v-170.5h13.476l27 26h28.024v-15h-21.976l-27-26h-52.904c1.711-8.123 2.795-16.473 3.197-25h98.683v-15h-98.683c-.402-8.527-1.486-16.877-3.197-25h52.904zm-61.524 276.5c0 12.407-10.094 22.5-22.5 22.5h-300c-12.406 0-22.5-10.093-22.5-22.5v-22.5h345zm0-170.5v133h-345v-133h22.326c20.194 63.703 79.876 110 150.174 110s129.98-46.297 150.174-110zm-315-47.5c0-78.575 63.925-142.5 142.5-142.5s142.5 63.925 142.5 142.5-63.925 142.5-142.5 142.5-142.5-63.925-142.5-142.5zm315-47.5h-22.326c-20.194-63.703-79.876-110-150.174-110s-129.98 46.297-150.174 110h-22.326v-133h345zm0-148h-345v-22.5c0-12.407 10.094-22.5 22.5-22.5h300c12.406 0 22.5 10.093 22.5 22.5z"/></g></svg>